<svg xmlns="http://www.w3.org/2000/svg" viewBox="0 0 560 300" role="img" aria-labelledby="title desc">
  <title id="title">Ciclista DMP Performance</title>
  <desc id="desc">Ilustração estilizada de um ciclista em movimento, em verde-limão, branco e cinza.</desc>
  <defs>
    <linearGradient id="lime" x1="0" y1="0" x2="1" y2="1">
      <stop offset="0" stop-color="#c7ed4e"/>
      <stop offset="1" stop-color="#8fb821"/>
    </linearGradient>
    <filter id="shadow" x="-20%" y="-20%" width="140%" height="140%">
      <feDropShadow dx="0" dy="8" stdDeviation="8" flood-color="#000" flood-opacity=".25"/>
    </filter>
  </defs>
  <g opacity=".22" fill="none" stroke="#c7ed4e">
    <path d="M20 245 C120 185 190 255 300 205 S455 150 545 190" stroke-width="2"/>
    <path d="M40 265 C155 205 220 275 330 225 S470 170 550 210" stroke-width="1"/>
  </g>
  <g filter="url(#shadow)">
    <circle cx="145" cy="215" r="61" fill="none" stroke="#f7f9fa" stroke-width="9"/>
    <circle cx="430" cy="215" r="61" fill="none" stroke="#f7f9fa" stroke-width="9"/>
    <circle cx="145" cy="215" r="6" fill="#c7ed4e"/>
    <circle cx="430" cy="215" r="6" fill="#c7ed4e"/>
    <path d="M145 215 L235 207 L286 146 L342 215 L235 207 L205 153 L286 146" fill="none" stroke="url(#lime)" stroke-width="11" stroke-linecap="round" stroke-linejoin="round"/>
    <path d="M342 215 L390 139 L430 215 M390 139 L417 135" fill="none" stroke="#e8edf0" stroke-width="10" stroke-linecap="round"/>
    <path d="M205 153 L186 151" stroke="#e8edf0" stroke-width="10" stroke-linecap="round"/>
    <circle cx="313" cy="71" r="23" fill="#f7f9fa"/>
    <path d="M294 90 C276 103 260 121 250 145 L302 160 L337 123 C326 105 313 94 294 90Z" fill="url(#lime)"/>
    <path d="M270 119 L229 138 L203 153" fill="none" stroke="#f7f9fa" stroke-width="13" stroke-linecap="round"/>
    <path d="M310 151 L345 169 L390 139" fill="none" stroke="#f7f9fa" stroke-width="13" stroke-linecap="round"/>
    <path d="M291 158 L253 204 L231 209" fill="none" stroke="#f7f9fa" stroke-width="15" stroke-linecap="round"/>
    <path d="M303 157 L342 205 L357 220" fill="none" stroke="#f7f9fa" stroke-width="15" stroke-linecap="round"/>
    <path d="M291 48 C310 41 330 52 338 67 L315 69 L299 61Z" fill="#c7ed4e"/>
  </g>
  <g fill="#fff" opacity=".72">
    <circle cx="510" cy="75" r="3"/><circle cx="470" cy="52" r="2"/><circle cx="525" cy="118" r="2.5"/>
  </g>
  <text x="32" y="56" fill="#c7ed4e" font-family="Arial, sans-serif" font-size="14" font-weight="700" letter-spacing="4">MOVE • BUILD • EVOLVE</text>
</svg>
